<svg width="33" height="33" viewBox="0 0 33 33" fill="none" xmlns="http://www.w3.org/2000/svg">
<path d="M1.44352 0.101774L32.1535 15.2338C32.321 15.3163 32.462 15.4441 32.5606 15.6026C32.6592 15.7611 32.7115 15.9441 32.7115 16.1308C32.7115 16.3175 32.6592 16.5004 32.5606 16.659C32.462 16.8175 32.321 16.9452 32.1535 17.0278L1.44152 32.1598C1.26947 32.2443 1.07674 32.2776 0.886302 32.2557C0.695863 32.2338 0.515735 32.1576 0.36737 32.0362C0.219006 31.9148 0.108658 31.7533 0.049469 31.571C-0.00971977 31.3887 -0.015255 31.1932 0.0335222 31.0078L3.07552 19.5178C3.12483 19.3318 3.22672 19.1641 3.36897 19.0346C3.51122 18.9051 3.68779 18.8194 3.87752 18.7878L17.6395 16.4938C17.7215 16.4802 17.7989 16.4464 17.8645 16.3954C17.9302 16.3444 17.9821 16.2779 18.0155 16.2018L18.0515 16.0818C18.0702 15.9706 18.0507 15.8563 17.9963 15.7575C17.9418 15.6588 17.8556 15.5813 17.7515 15.5378L17.6395 15.5058L3.80152 13.1998C3.61216 13.1678 3.43601 13.0819 3.29415 12.9524C3.15228 12.823 3.05069 12.6554 3.00152 12.4698L0.0335222 1.25577C-0.0157624 1.07025 -0.0106101 0.874467 0.0483642 0.691796C0.107338 0.509124 0.217643 0.347286 0.366105 0.225606C0.514567 0.103926 0.694913 0.0275465 0.885608 0.00558831C1.0763 -0.0163698 1.26929 0.0170214 1.44152 0.101774H1.44352Z" fill="white"/>
</svg>
