<svg width="50" height="50" viewBox="0 0 50 50" fill="none" xmlns="http://www.w3.org/2000/svg">
<path d="M25 18.1818C28.75 18.1818 31.8182 21.25 31.8182 25C31.8182 28.75 28.75 31.8182 25 31.8182C21.25 31.8182 18.1818 28.75 18.1818 25C18.1818 21.25 21.25 18.1818 25 18.1818ZM25 13.6364C18.7273 13.6364 13.6364 18.7273 13.6364 25C13.6364 31.2727 18.7273 36.3636 25 36.3636C31.2727 36.3636 36.3636 31.2727 36.3636 25C36.3636 18.7273 31.2727 13.6364 25 13.6364ZM2.27273 27.2727H6.81818C8.06818 27.2727 9.09091 26.25 9.09091 25C9.09091 23.75 8.06818 22.7273 6.81818 22.7273H2.27273C1.02273 22.7273 0 23.75 0 25C0 26.25 1.02273 27.2727 2.27273 27.2727ZM43.1818 27.2727H47.7273C48.9773 27.2727 50 26.25 50 25C50 23.75 48.9773 22.7273 47.7273 22.7273H43.1818C41.9318 22.7273 40.9091 23.75 40.9091 25C40.9091 26.25 41.9318 27.2727 43.1818 27.2727ZM22.7273 2.27273V6.81818C22.7273 8.06818 23.75 9.09091 25 9.09091C26.25 9.09091 27.2727 8.06818 27.2727 6.81818V2.27273C27.2727 1.02273 26.25 0 25 0C23.75 0 22.7273 1.02273 22.7273 2.27273ZM22.7273 43.1818V47.7273C22.7273 48.9773 23.75 50 25 50C26.25 50 27.2727 48.9773 27.2727 47.7273V43.1818C27.2727 41.9318 26.25 40.9091 25 40.9091C23.75 40.9091 22.7273 41.9318 22.7273 43.1818ZM11.3409 8.13636C11.1307 7.92567 10.8809 7.75852 10.606 7.64447C10.331 7.53042 10.0363 7.47172 9.73864 7.47172C9.44098 7.47172 9.14625 7.53042 8.87131 7.64447C8.59637 7.75852 8.34662 7.92567 8.13636 8.13636C7.92567 8.34662 7.75852 8.59637 7.64447 8.87131C7.53042 9.14625 7.47172 9.44098 7.47172 9.73864C7.47172 10.0363 7.53042 10.331 7.64447 10.606C7.75852 10.8809 7.92567 11.1307 8.13636 11.3409L10.5455 13.75C11.4318 14.6364 12.8864 14.6364 13.75 13.75C14.6136 12.8636 14.6364 11.4091 13.75 10.5455L11.3409 8.13636ZM39.4545 36.25C39.2443 36.0393 38.9945 35.8722 38.7196 35.7581C38.4447 35.6441 38.1499 35.5854 37.8523 35.5854C37.5546 35.5854 37.2599 35.6441 36.9849 35.7581C36.71 35.8722 36.4603 36.0393 36.25 36.25C36.0393 36.4603 35.8722 36.71 35.7581 36.9849C35.6441 37.2599 35.5854 37.5546 35.5854 37.8523C35.5854 38.1499 35.6441 38.4447 35.7581 38.7196C35.8722 38.9945 36.0393 39.2443 36.25 39.4545L38.6591 41.8636C39.5455 42.75 41 42.75 41.8636 41.8636C42.0743 41.6534 42.2415 41.4036 42.3555 41.1287C42.4696 40.8538 42.5283 40.559 42.5283 40.2614C42.5283 39.9637 42.4696 39.669 42.3555 39.394C42.2415 39.1191 42.0743 38.8694 41.8636 38.6591L39.4545 36.25ZM41.8636 11.3409C42.0743 11.1307 42.2415 10.8809 42.3555 10.606C42.4696 10.331 42.5283 10.0363 42.5283 9.73864C42.5283 9.44098 42.4696 9.14625 42.3555 8.87131C42.2415 8.59637 42.0743 8.34662 41.8636 8.13636C41.6534 7.92567 41.4036 7.75852 41.1287 7.64447C40.8538 7.53042 40.559 7.47172 40.2614 7.47172C39.9637 7.47172 39.669 7.53042 39.394 7.64447C39.1191 7.75852 38.8694 7.92567 38.6591 8.13636L36.25 10.5455C35.3636 11.4318 35.3636 12.8864 36.25 13.75C37.1364 14.6136 38.5909 14.6364 39.4545 13.75L41.8636 11.3409ZM13.75 39.4545C13.9607 39.2443 14.1278 38.9945 14.2419 38.7196C14.3559 38.4447 14.4146 38.1499 14.4146 37.8523C14.4146 37.5546 14.3559 37.2599 14.2419 36.9849C14.1278 36.71 13.9607 36.4603 13.75 36.25C13.5397 36.0393 13.29 35.8722 13.0151 35.7581C12.7401 35.6441 12.4454 35.5854 12.1477 35.5854C11.8501 35.5854 11.5553 35.6441 11.2804 35.7581C11.0055 35.8722 10.7557 36.0393 10.5455 36.25L8.13636 38.6591C7.25 39.5455 7.25 41 8.13636 41.8636C9.02273 42.7273 10.4773 42.75 11.3409 41.8636L13.75 39.4545Z" fill="white"/>
</svg>
