<svg width="50" height="50" viewBox="0 0 50 50" fill="none" xmlns="http://www.w3.org/2000/svg">
<path d="M17.6945 6.97222C17.1927 8.77182 16.9404 10.6318 16.9445 12.5C16.9445 23.8333 26.1667 33.0555 37.5 33.0555C39.3889 33.0555 41.25 32.8055 43.0278 32.3055C41.5686 35.8909 39.0746 38.9603 35.8637 41.1222C32.6529 43.2842 28.8709 44.4408 25 44.4444C14.2778 44.4444 5.55557 35.7222 5.55557 25C5.55557 16.8611 10.5833 9.86111 17.6945 6.97222V6.97222ZM25 0C20.0555 0 15.222 1.46622 11.1108 4.21326C6.99953 6.96029 3.79521 10.8648 1.90302 15.4329C0.010832 20.0011 -0.484251 25.0277 0.480379 29.8772C1.44501 34.7268 3.82603 39.1813 7.32234 42.6777C10.8187 46.174 15.2732 48.555 20.1228 49.5196C24.9723 50.4842 29.9989 49.9892 34.5671 48.097C39.1352 46.2048 43.0397 43.0005 45.7867 38.8892C48.5338 34.778 50 29.9445 50 25C50 23.7222 49.8889 22.4444 49.7222 21.2222C48.3342 23.1685 46.5003 24.7541 44.3739 25.8462C42.2475 26.9384 39.8905 27.5055 37.5 27.5C34.32 27.5001 31.2222 26.4901 28.6533 24.6157C26.0845 22.7413 24.1774 20.0995 23.207 17.0711C22.2367 14.0428 22.2534 10.7845 23.2546 7.76627C24.2559 4.74801 26.1899 2.12578 28.7778 0.277777C27.5556 0.111111 26.2778 0 25 0V0Z" fill="black"/>
</svg>
